<svg xmlns="http://www.w3.org/2000/svg" xmlns:xlink="http://www.w3.org/1999/xlink" width="500" zoomAndPan="magnify" viewBox="0 0 375 374.999991" height="500" preserveAspectRatio="xMidYMid meet" version="1.0"><defs><g/><clipPath id="6ca7e2bf04"><path d="M 265.136719 0 L 375 109.863281 L 375 265.136719 L 265.136719 375 L 109.863281 375 L 0 265.136719 L 0 109.863281 L 109.863281 0 Z M 265.136719 0 " clip-rule="nonzero"/></clipPath><clipPath id="2c77c820c6"><path d="M 12.878906 12.878906 L 362.121094 12.878906 L 362.121094 362.121094 L 12.878906 362.121094 Z M 12.878906 12.878906 " clip-rule="nonzero"/></clipPath><clipPath id="3d94df7d66"><path d="M 259.804688 12.878906 L 362.121094 115.195312 L 362.121094 259.804688 L 259.804688 362.121094 L 115.195312 362.121094 L 12.878906 259.804688 L 12.878906 115.195312 L 115.195312 12.878906 Z M 259.804688 12.878906 " clip-rule="nonzero"/></clipPath><clipPath id="8793709a64"><path d="M 12.878906 12.878906 L 362.109375 12.878906 L 362.109375 362.109375 L 12.878906 362.109375 Z M 12.878906 12.878906 " clip-rule="nonzero"/></clipPath><clipPath id="fdb3fe29d8"><path d="M 259.796875 12.878906 L 362.109375 115.191406 L 362.109375 259.796875 L 259.796875 362.109375 L 115.191406 362.109375 L 12.878906 259.796875 L 12.878906 115.191406 L 115.191406 12.878906 Z M 259.796875 12.878906 " clip-rule="nonzero"/></clipPath></defs><g clip-path="url(#6ca7e2bf04)"><rect x="-37.5" width="450" fill="#b91c1c" y="-37.499999" height="449.999989" fill-opacity="1"/></g><g clip-path="url(#2c77c820c6)"><g clip-path="url(#3d94df7d66)"><path fill="#b91c1c" d="M 12.878906 12.878906 L 362.121094 12.878906 L 362.121094 362.121094 L 12.878906 362.121094 Z M 12.878906 12.878906 " fill-opacity="1" fill-rule="nonzero"/></g></g><g clip-path="url(#8793709a64)"><g clip-path="url(#fdb3fe29d8)"><path stroke-linecap="butt" transform="matrix(0.75, 0, 0, 0.75, 12.879396, 12.879392)" fill="none" stroke-linejoin="miter" d="M 329.223327 -0.000647072 L 465.640003 136.416029 L 465.640003 329.223333 L 329.223327 465.640009 L 136.416023 465.640009 L -0.000653072 329.223333 L -0.000653072 136.416029 L 136.416023 -0.000647072 Z M 329.223327 -0.000647072 " stroke="#ffffff" stroke-width="34" stroke-opacity="1" stroke-miterlimit="4"/></g></g><g fill="#ffffff" fill-opacity="1"><g transform="translate(111.648432, 267.442446)"><g><path d="M 2.828125 0 L 56.25 -79.859375 L 3.046875 -159.609375 L 37.28125 -159.609375 L 75.90625 -98.046875 L 114.53125 -159.609375 L 148.765625 -159.609375 L 95.5625 -79.859375 L 148.984375 0 L 114.765625 0 L 75.671875 -60.65625 L 37.046875 0 Z M 2.828125 0 "/></g></g></g></svg>