<svg xmlns="http://www.w3.org/2000/svg" xmlns:xlink="http://www.w3.org/1999/xlink" width="500" zoomAndPan="magnify" viewBox="0 0 375 374.999991" height="500" preserveAspectRatio="xMidYMid meet" version="1.0"><defs><g/><clipPath id="30562604dd"><path d="M 187.5 0 C 83.945312 0 0 83.945312 0 187.5 C 0 291.054688 83.945312 375 187.5 375 C 291.054688 375 375 291.054688 375 187.5 C 375 83.945312 291.054688 0 187.5 0 Z M 187.5 0 " clip-rule="nonzero"/></clipPath><clipPath id="971fcd5f72"><path d="M 18.570312 18.570312 L 356.429688 18.570312 L 356.429688 356.429688 L 18.570312 356.429688 Z M 18.570312 18.570312 " clip-rule="nonzero"/></clipPath><clipPath id="e891a7f57e"><path d="M 187.5 18.570312 C 94.203125 18.570312 18.570312 94.203125 18.570312 187.5 C 18.570312 280.796875 94.203125 356.429688 187.5 356.429688 C 280.796875 356.429688 356.429688 280.796875 356.429688 187.5 C 356.429688 94.203125 280.796875 18.570312 187.5 18.570312 Z M 187.5 18.570312 " clip-rule="nonzero"/></clipPath><clipPath id="19a9ddc130"><path d="M 18.570312 18.570312 L 356.070312 18.570312 L 356.070312 356.070312 L 18.570312 356.070312 Z M 18.570312 18.570312 " clip-rule="nonzero"/></clipPath><clipPath id="5e650d5bd0"><path d="M 187.496094 18.570312 C 94.199219 18.570312 18.570312 94.199219 18.570312 187.496094 C 18.570312 280.792969 94.199219 356.421875 187.496094 356.421875 C 280.792969 356.421875 356.421875 280.792969 356.421875 187.496094 C 356.421875 94.199219 280.792969 18.570312 187.496094 18.570312 Z M 187.496094 18.570312 " clip-rule="nonzero"/></clipPath></defs><g clip-path="url(#30562604dd)"><rect x="-37.5" width="450" fill="#1d4ed8" y="-37.499999" height="449.999989" fill-opacity="1"/></g><g clip-path="url(#971fcd5f72)"><g clip-path="url(#e891a7f57e)"><path fill="#1d4ed8" d="M 18.570312 18.570312 L 356.429688 18.570312 L 356.429688 356.429688 L 18.570312 356.429688 Z M 18.570312 18.570312 " fill-opacity="1" fill-rule="nonzero"/></g></g><g clip-path="url(#19a9ddc130)"><g clip-path="url(#5e650d5bd0)"><path stroke-linecap="butt" transform="matrix(0.75, 0, 0, 0.75, 18.570291, 18.570286)" fill="none" stroke-linejoin="miter" d="M 225.234419 0.0000349326 C 100.838577 0.0000349326 0.0000289326 100.838583 0.0000289326 225.234425 C 0.0000289326 349.630266 100.838577 450.468815 225.234419 450.468815 C 349.63026 450.468815 450.468809 349.630266 450.468809 225.234425 C 450.468809 100.838583 349.63026 0.0000349326 225.234419 0.0000349326 Z M 225.234419 0.0000349326 " stroke="#ffffff" stroke-width="34" stroke-opacity="1" stroke-miterlimit="4"/></g></g><g fill="#ffffff" fill-opacity="1"><g transform="translate(136.121787, 300.837436)"><g><path d="M 60 -193.78125 C 54.707031 -193.78125 50.109375 -195.734375 46.203125 -199.640625 C 42.296875 -203.554688 40.34375 -208.15625 40.34375 -213.4375 C 40.34375 -218.726562 42.296875 -223.328125 46.203125 -227.234375 C 50.109375 -231.140625 54.707031 -233.09375 60 -233.09375 C 65.28125 -233.09375 69.875 -231.140625 73.78125 -227.234375 C 77.695312 -223.328125 79.65625 -218.726562 79.65625 -213.4375 C 79.65625 -208.15625 77.695312 -203.554688 73.78125 -199.640625 C 69.875 -195.734375 65.28125 -193.78125 60 -193.78125 Z M 45.171875 4.828125 C 39.191406 4.828125 35.28125 2.414062 33.4375 -2.40625 C 31.601562 -7.238281 30.6875 -13.675781 30.6875 -21.71875 C 30.6875 -34.59375 31.773438 -47.234375 33.953125 -59.640625 C 36.140625 -72.054688 38.328125 -83.894531 40.515625 -95.15625 C 42.703125 -106.425781 43.796875 -116.890625 43.796875 -126.546875 C 43.796875 -129.078125 43.675781 -131.832031 43.4375 -134.8125 C 43.207031 -137.800781 42.632812 -140.101562 41.71875 -141.71875 C 38.039062 -139.414062 33.269531 -135.617188 27.40625 -130.328125 C 21.550781 -125.046875 16.898438 -119.1875 13.453125 -112.75 C 11.835938 -114.363281 11.03125 -116.550781 11.03125 -119.3125 C 11.03125 -123.21875 12.582031 -127.46875 15.6875 -132.0625 C 18.789062 -136.65625 22.925781 -141.078125 28.09375 -145.328125 C 33.269531 -149.585938 38.847656 -153.097656 44.828125 -155.859375 C 50.804688 -158.617188 56.664062 -160 62.40625 -160 C 67.695312 -160 71.085938 -158.734375 72.578125 -156.203125 C 74.078125 -153.671875 74.828125 -150.453125 74.828125 -146.546875 C 74.828125 -140.796875 74.078125 -133.378906 72.578125 -124.296875 C 71.085938 -115.222656 69.363281 -105.515625 67.40625 -95.171875 C 65.457031 -84.828125 63.734375 -74.484375 62.234375 -64.140625 C 60.742188 -53.796875 60 -44.367188 60 -35.859375 C 60 -31.492188 60.226562 -27.414062 60.6875 -23.625 C 61.144531 -19.832031 61.71875 -16.671875 62.40625 -14.140625 C 68.15625 -16.671875 73.613281 -20.40625 78.78125 -25.34375 C 83.957031 -30.28125 87.8125 -34.9375 90.34375 -39.3125 C 91.71875 -37.238281 92.40625 -35.050781 92.40625 -32.75 C 92.40625 -29.070312 90.796875 -25.050781 87.578125 -20.6875 C 84.359375 -16.320312 80.332031 -12.179688 75.5 -8.265625 C 70.675781 -4.359375 65.5625 -1.203125 60.15625 1.203125 C 54.757812 3.617188 49.765625 4.828125 45.171875 4.828125 Z M 45.171875 4.828125 "/></g></g></g></svg>