<?xml version="1.0" encoding="UTF-8" standalone="no"?>
<!-- Created with Inkscape (http://www.inkscape.org/) -->

<svg
   width="108.41262mm"
   height="108.41262mm"
   viewBox="0 0 108.41262 108.41262"
   version="1.1"
   id="svg1"
   xml:space="preserve"
   xmlns:xlink="http://www.w3.org/1999/xlink"
   xmlns="http://www.w3.org/2000/svg"
   xmlns:svg="http://www.w3.org/2000/svg"><defs
     id="defs1"><linearGradient
       id="linearGradient27"><stop
         style="stop-color:#ff0000;stop-opacity:1;"
         offset="0"
         id="stop27" /><stop
         style="stop-color:#ffca00;stop-opacity:0.96862745;"
         offset="1"
         id="stop28" /></linearGradient><linearGradient
       xlink:href="#linearGradient27"
       id="linearGradient28"
       x1="35.001785"
       y1="192.35495"
       x2="143.4144"
       y2="83.942337"
       gradientUnits="userSpaceOnUse" /><filter
       style="color-interpolation-filters:sRGB"
       id="filter90"
       x="-0.059506074"
       y="-0.12477839"
       width="1.1465613"
       height="1.3073246"><feFlood
         result="flood"
         in="SourceGraphic"
         flood-opacity="1.000000"
         flood-color="rgb(0,0,0)"
         id="feFlood89" /><feGaussianBlur
         result="blur"
         in="SourceGraphic"
         stdDeviation="0.900000"
         id="feGaussianBlur89" /><feOffset
         result="offset"
         in="blur"
         dx="1.000000"
         dy="1.000000"
         id="feOffset89" /><feComposite
         result="comp1"
         operator="in"
         in="flood"
         in2="offset"
         id="feComposite89" /><feComposite
         result="comp2"
         operator="over"
         in="SourceGraphic"
         in2="comp1"
         id="feComposite90" /></filter><filter
       style="color-interpolation-filters:sRGB"
       id="filter147"
       x="-0.31473854"
       y="-0.27257434"
       width="1.6432813"
       height="1.5822092"><feFlood
         result="flood"
         in="SourceGraphic"
         flood-opacity="0.815686"
         flood-color="rgb(255,255,255)"
         id="feFlood146" /><feGaussianBlur
         result="blur"
         in="SourceGraphic"
         stdDeviation="9.500000"
         id="feGaussianBlur146" /><feOffset
         result="offset"
         in="blur"
         dx="1.000000"
         dy="3.100000"
         id="feOffset146" /><feComposite
         result="comp1"
         operator="in"
         in="flood"
         in2="offset"
         id="feComposite146" /><feComposite
         result="comp2"
         operator="over"
         in="SourceGraphic"
         in2="comp1"
         id="feComposite147" /></filter><filter
       style="color-interpolation-filters:sRGB"
       id="filter385"
       x="0"
       y="0"
       width="1.0518825"
       height="1.0518825"><feFlood
         result="flood"
         in="SourceGraphic"
         flood-opacity="0.815686"
         flood-color="rgb(105,0,0)"
         id="feFlood384" /><feGaussianBlur
         result="blur"
         in="SourceGraphic"
         stdDeviation="0.000000"
         id="feGaussianBlur384" /><feOffset
         result="offset"
         in="blur"
         dx="1.000000"
         dy="1.000000"
         id="feOffset384" /><feComposite
         result="comp1"
         operator="in"
         in="flood"
         in2="offset"
         id="feComposite384" /><feComposite
         result="comp2"
         operator="over"
         in="SourceGraphic"
         in2="comp1"
         id="feComposite385" /></filter><filter
       style="color-interpolation-filters:sRGB"
       id="filter387"
       x="0"
       y="0"
       width="1.0518825"
       height="1.0518825"><feFlood
         result="flood"
         in="SourceGraphic"
         flood-opacity="0.815686"
         flood-color="rgb(105,0,0)"
         id="feFlood385" /><feGaussianBlur
         result="blur"
         in="SourceGraphic"
         stdDeviation="0.000000"
         id="feGaussianBlur385" /><feOffset
         result="offset"
         in="blur"
         dx="1.000000"
         dy="1.000000"
         id="feOffset385" /><feComposite
         result="comp1"
         operator="in"
         in="flood"
         in2="offset"
         id="feComposite386" /><feComposite
         result="comp2"
         operator="over"
         in="SourceGraphic"
         in2="comp1"
         id="feComposite387" /></filter><filter
       style="color-interpolation-filters:sRGB"
       id="filter389"
       x="0"
       y="0"
       width="1.0518825"
       height="1.0518825"><feFlood
         result="flood"
         in="SourceGraphic"
         flood-opacity="0.815686"
         flood-color="rgb(105,0,0)"
         id="feFlood387" /><feGaussianBlur
         result="blur"
         in="SourceGraphic"
         stdDeviation="0.000000"
         id="feGaussianBlur387" /><feOffset
         result="offset"
         in="blur"
         dx="1.000000"
         dy="1.000000"
         id="feOffset387" /><feComposite
         result="comp1"
         operator="in"
         in="flood"
         in2="offset"
         id="feComposite388" /><feComposite
         result="comp2"
         operator="over"
         in="SourceGraphic"
         in2="comp1"
         id="feComposite389" /></filter><filter
       style="color-interpolation-filters:sRGB"
       id="filter391"
       x="0"
       y="0"
       width="1.0518825"
       height="1.0518825"><feFlood
         result="flood"
         in="SourceGraphic"
         flood-opacity="0.815686"
         flood-color="rgb(105,0,0)"
         id="feFlood389" /><feGaussianBlur
         result="blur"
         in="SourceGraphic"
         stdDeviation="0.000000"
         id="feGaussianBlur389" /><feOffset
         result="offset"
         in="blur"
         dx="1.000000"
         dy="1.000000"
         id="feOffset389" /><feComposite
         result="comp1"
         operator="in"
         in="flood"
         in2="offset"
         id="feComposite390" /><feComposite
         result="comp2"
         operator="over"
         in="SourceGraphic"
         in2="comp1"
         id="feComposite391" /></filter><filter
       style="color-interpolation-filters:sRGB"
       id="filter393"
       x="0"
       y="0"
       width="1.0518825"
       height="1.0518825"><feFlood
         result="flood"
         in="SourceGraphic"
         flood-opacity="0.815686"
         flood-color="rgb(105,0,0)"
         id="feFlood391" /><feGaussianBlur
         result="blur"
         in="SourceGraphic"
         stdDeviation="0.000000"
         id="feGaussianBlur391" /><feOffset
         result="offset"
         in="blur"
         dx="1.000000"
         dy="1.000000"
         id="feOffset391" /><feComposite
         result="comp1"
         operator="in"
         in="flood"
         in2="offset"
         id="feComposite392" /><feComposite
         result="comp2"
         operator="over"
         in="SourceGraphic"
         in2="comp1"
         id="feComposite393" /></filter><filter
       style="color-interpolation-filters:sRGB"
       id="filter395"
       x="0"
       y="0"
       width="1.0112203"
       height="1.010137"><feFlood
         result="flood"
         in="SourceGraphic"
         flood-opacity="0.815686"
         flood-color="rgb(105,0,0)"
         id="feFlood393" /><feGaussianBlur
         result="blur"
         in="SourceGraphic"
         stdDeviation="0.000000"
         id="feGaussianBlur393" /><feOffset
         result="offset"
         in="blur"
         dx="1.000000"
         dy="1.000000"
         id="feOffset393" /><feComposite
         result="comp1"
         operator="in"
         in="flood"
         in2="offset"
         id="feComposite394" /><feComposite
         result="comp2"
         operator="over"
         in="SourceGraphic"
         in2="comp1"
         id="feComposite395" /></filter></defs><g
     id="layer1"
     transform="translate(-35.001785,-83.942337)"><rect
       style="fill:url(#linearGradient28);fill-opacity:1;fill-rule:evenodd;stroke:#ff9b01;stroke-width:0;stroke-opacity:1;paint-order:stroke markers fill"
       id="rect26"
       width="108.41262"
       height="108.41262"
       x="35.001785"
       y="83.942337"
       rx="30"
       ry="30" /><g
       id="g1"
       transform="matrix(1.0833532,0,0,1.1590115,-13.020803,-26.50933)"
       style="stroke-width:0.892424"><path
         style="fill:#ffffff;fill-opacity:1;stroke-width:0;stroke-dasharray:none"
         d="m 93.82567,176.60265 c -0.16819,-0.0337 -1.83675,-0.44258 -3.70792,-0.90862 -1.87115,-0.46603 -6.89404,-1.70738 -11.16196,-2.75855 -4.26793,-1.05118 -7.88422,-1.94532 -8.03621,-1.98697 -0.38441,-0.10533 -0.67366,-0.35309 -0.84014,-0.71961 -0.13464,-0.29646 -0.14169,-0.67022 -0.14329,-7.58613 l -0.002,-7.27432 -1.58638,-0.3886 c -0.8725,-0.21372 -2.73139,-0.66288 -4.13086,-0.99814 -1.66387,-0.39859 -2.62074,-0.66385 -2.76482,-0.76643 -0.45114,-0.32125 -0.67287,-1.17785 -0.44025,-1.70084 0.0507,-0.11391 1.34784,-1.54136 2.88261,-3.17212 1.53477,-1.63075 3.54737,-3.76898 4.47243,-4.75162 0.92507,-0.98264 1.68195,-1.81314 1.68195,-1.84557 0,-0.0324 -2.0126,-2.19745 -4.47244,-4.81117 -2.45984,-2.61372 -4.51389,-4.8454 -4.56455,-4.95928 -0.12411,-0.27898 -0.12207,-0.80663 0.005,-1.10902 0.1372,-0.32836 0.59041,-0.71699 0.94692,-0.81198 0.15823,-0.0422 1.52621,-0.37262 3.03996,-0.73436 4.23151,-1.01121 12.80468,-3.07938 16.20779,-3.90995 3.11435,-0.76008 3.63105,-0.84103 4.02851,-0.63116 0.11325,0.0598 1.10839,1.07202 2.21144,2.24939 1.10304,1.17736 3.10699,3.30654 4.45322,4.73153 l 2.44769,2.59088 0.578,-0.60313 c 0.73001,-0.76177 7.41013,-7.89063 7.89815,-8.42872 0.53305,-0.58777 1.16446,-0.82568 1.67671,-0.6318 0.0974,0.0368 1.94877,0.48807 4.11427,1.00273 2.1655,0.51466 5.55423,1.32534 7.53051,1.80149 1.97627,0.47615 5.17578,1.24703 7.11002,1.71306 1.93424,0.46603 3.61155,0.88516 3.72738,0.93144 0.43966,0.17561 0.81987,0.81095 0.82108,1.37204 2.3e-4,0.10902 -0.077,0.33848 -0.17159,0.50991 -0.14542,0.26349 -2.63982,2.95379 -7.91983,8.54181 -0.59557,0.63032 -1.07365,1.1737 -1.06238,1.20751 0.0113,0.0338 2.01538,2.1792 4.45357,4.76756 2.43818,2.58836 4.49238,4.83165 4.56486,4.9851 0.23209,0.49134 0.12362,1.1068 -0.26923,1.52754 -0.24489,0.26229 -0.46525,0.35629 -1.27692,0.54472 -0.39945,0.0927 -2.13682,0.50971 -3.86082,0.92658 -1.72399,0.41689 -3.21193,0.77599 -3.30654,0.79802 l -0.17202,0.0401 v 7.21184 c 0,5.18025 -0.0245,7.28504 -0.0869,7.4717 -0.0478,0.14293 -0.17678,0.35764 -0.2867,0.47713 -0.21143,0.22984 -0.69257,0.50905 -0.87722,0.50905 -0.0605,0 -4.19891,1.01172 -9.19638,2.24827 -12.94173,3.20224 -13.80448,3.41153 -14.01743,3.4002 -0.10512,-0.005 -0.32874,-0.0378 -0.49695,-0.0714 z m -0.11468,-14.06316 c 0,-6.93801 -0.0266,-12.61456 -0.059,-12.61456 -0.0324,0 -1.13014,1.1439 -2.43938,2.54202 -5.28868,5.6477 -5.75841,6.13463 -6.04581,6.26705 -0.47758,0.22003 0.50027,0.42347 -8.92509,-1.85672 -2.27062,-0.5493 -4.32623,-1.04513 -4.568,-1.10183 l -0.43961,-0.10308 v 6.97711 6.97712 l 0.97477,0.24011 c 6.05221,1.49085 19.20592,4.74159 20.12595,4.97382 0.65175,0.16452 1.22801,0.30235 1.28057,0.30631 0.0761,0.005 0.0956,-2.56285 0.0956,-12.60735 z m 12.57633,9.85252 c 5.92884,-1.46667 10.85676,-2.68431 10.95094,-2.70586 l 0.17122,-0.0392 0.02,-6.99318 c 0.0176,-6.18688 0.006,-6.98914 -0.0948,-6.95814 -0.0631,0.0192 -1.69723,0.41672 -3.63146,0.88324 -1.93423,0.46652 -4.7209,1.1404 -6.1926,1.49752 -3.65266,0.88632 -3.40635,0.8392 -3.78841,0.72474 -0.18605,-0.0557 -0.46352,-0.23294 -0.65085,-0.41565 -0.17959,-0.17516 -2.03807,-2.14184 -4.12994,-4.37042 -2.09186,-2.22857 -3.83203,-4.06342 -3.86703,-4.07743 -0.035,-0.014 -0.0637,5.65667 -0.0637,12.60152 v 12.627 l 0.24846,-0.0537 c 0.13666,-0.0296 5.09935,-1.25375 11.02819,-2.72042 z M 85.323,156.74825 c 0.88524,-0.91925 7.62622,-8.10235 8.03426,-8.56119 0.16287,-0.18314 0.28328,-0.34442 0.26759,-0.35841 -0.03,-0.0267 -1.29081,-0.3341 -7.0621,-1.72171 -1.93424,-0.46507 -6.15811,-1.48175 -9.38639,-2.25933 l -5.8696,-1.41376 -0.51316,0.55367 c -0.28223,0.30453 -0.80894,0.86331 -1.17046,1.24174 -0.52801,0.55274 -4.33277,4.60748 -6.87086,7.32232 -0.2664,0.28496 -0.46871,0.53377 -0.44956,0.55291 0.0191,0.0191 1.89033,0.48037 4.15819,1.02495 9.93967,2.38676 16.93345,4.07196 17.46425,4.20814 0.31536,0.0809 0.59738,0.14912 0.62671,0.15159 0.0293,0.003 0.37634,-0.33095 0.77113,-0.74092 z m 20.23487,0.40117 c 0.77963,-0.18934 3.86015,-0.93125 6.8456,-1.6487 12.24203,-2.94198 13.98307,-3.36382 14.01498,-3.39573 0.0184,-0.0184 -0.23762,-0.32105 -0.56885,-0.67267 -0.33122,-0.35161 -2.18125,-2.32256 -4.11118,-4.37989 -1.92994,-2.05733 -3.69458,-3.93741 -3.92146,-4.17796 l -0.41248,-0.43738 -6.82004,1.63769 c -3.75102,0.90074 -8.29937,1.99733 -10.10746,2.43686 -1.80808,0.43955 -3.76047,0.911 -4.33864,1.04768 -0.57817,0.13668 -1.05122,0.27733 -1.05122,0.31258 0,0.0599 1.97276,2.17716 6.91891,7.42581 1.1353,1.20474 2.07997,2.19169 2.09925,2.1932 0.0193,0.002 0.67295,-0.15217 1.45259,-0.34149 z m -9.33771,-11.00163 c 0.95365,-0.22729 3.67769,-0.88483 6.05344,-1.46119 4.87911,-1.18367 10.14405,-2.45535 11.25754,-2.7191 0.40997,-0.0971 0.7454,-0.19673 0.7454,-0.22138 0,-0.0412 -2.28027,-0.59973 -11.88826,-2.91197 -1.93424,-0.46549 -4.51448,-1.08925 -5.73389,-1.38617 -1.21941,-0.29689 -2.26871,-0.53817 -2.33178,-0.53618 -0.0631,0.002 -1.3876,0.31307 -2.9434,0.69126 -1.55579,0.37819 -4.05004,0.98158 -5.54275,1.34086 -1.49273,0.35928 -4.43422,1.06949 -6.53664,1.57826 -2.10243,0.50877 -4.07201,0.98326 -4.37687,1.05442 -0.30485,0.0712 -0.55427,0.14798 -0.55427,0.17071 0,0.0227 0.61066,0.18561 1.35702,0.36195 0.74636,0.17635 4.83175,1.16061 9.07865,2.18726 4.2469,1.02663 8.08287,1.95378 8.52439,2.06033 0.4415,0.10653 0.88256,0.19606 0.98013,0.19894 0.0976,0.003 0.95764,-0.18071 1.91129,-0.408 z m -23.17527,-5.5068 c 1.61572,-0.38489 15.1372,-3.64431 18.92683,-4.56241 0.91455,-0.22156 1.66283,-0.42236 1.66283,-0.44621 0,-0.0436 -2.17511,-2.37359 -6.49352,-6.95578 -1.28517,-1.36367 -2.37292,-2.52792 -2.41721,-2.58723 -0.0681,-0.0912 -0.25681,-0.0653 -1.22322,0.16776 -2.15241,0.51909 -10.69795,2.57488 -15.92927,3.83208 -2.87653,0.69131 -5.24697,1.27382 -5.26762,1.29447 -0.0458,0.0458 -0.20983,-0.13182 4.76121,5.15371 2.23,2.37108 4.08206,4.35788 4.11569,4.4151 0.0336,0.0572 0.0744,0.10403 0.0906,0.10403 0.0161,0 0.81435,-0.18698 1.7737,-0.41552 z m 44.72625,0.0168 c 0.66764,-0.72696 2.63332,-2.82289 4.6092,-4.91467 3.5914,-3.80204 4.07433,-4.32272 4.04059,-4.35646 -0.0185,-0.0184 -0.89212,-0.23938 -1.94146,-0.49094 -4.03823,-0.96807 -15.40558,-3.70468 -17.84516,-4.29611 l -2.55819,-0.62019 -0.2247,0.25651 c -0.12359,0.14108 -0.76319,0.82417 -1.42134,1.51797 -0.65816,0.6938 -2.25926,2.39677 -3.55803,3.78436 -1.29877,1.38761 -2.68169,2.85649 -3.07316,3.26419 -0.39148,0.40769 -0.71177,0.77302 -0.71177,0.81184 0,0.081 1.22124,0.38162 13.25883,3.26372 4.83252,1.15702 8.80323,2.1205 8.82382,2.14109 0.10179,0.1018 0.26744,0.003 0.60137,-0.36131 z"
         id="path1" /><path
         style="fill:#d30000;fill-opacity:1;stroke-width:0.892424"
         d="m 94.23704,147.39738 c -0.18923,-0.0768 -0.53591,-0.44038 -0.83007,-0.87064 -0.13792,-0.20172 -0.97955,-1.55209 -1.87028,-3.00083 -6.42775,-10.45449 -9.51471,-15.54702 -9.94927,-16.41318 -0.45927,-0.91546 -0.98193,-2.46434 -1.17845,-3.49236 -0.47774,-2.49897 -0.33475,-4.87936 0.43464,-7.23535 1.18651,-3.63329 3.71304,-6.57746 7.14475,-8.32579 1.32203,-0.67352 2.76073,-1.13624 4.31579,-1.38807 1.01828,-0.16489 3.18289,-0.16489 4.20118,0 2.16477,0.35056 4.09681,1.1098 5.90163,2.31918 3.0314,2.03129 5.22702,5.32107 5.95891,8.92844 0.6233,3.07215 0.29346,6.03826 -0.98629,8.86914 -0.35811,0.79216 -3.66707,6.34467 -7.57053,12.70353 -1.14824,1.87052 -2.60138,4.23855 -3.2292,5.2623 -0.78819,1.28523 -1.26572,1.99215 -1.54284,2.28396 -0.39825,0.41935 -0.51902,0.47365 -0.79997,0.35967 z m 1.26593,-20.98125 c 2.28056,-0.3989 4.20147,-2.0406 4.94879,-4.22949 0.29427,-0.86192 0.38048,-1.47914 0.33067,-2.36733 -0.0986,-1.75805 -0.74937,-3.16136 -2.02879,-4.37485 -1.21602,-1.15336 -2.65543,-1.72396 -4.3489,-1.72396 -1.69143,0 -3.13312,0.57083 -4.34528,1.72052 -0.96303,0.91339 -1.53452,1.85482 -1.86842,3.07793 -0.13092,0.47957 -0.1542,0.7208 -0.15122,1.5671 0.003,0.87328 0.0263,1.08366 0.18354,1.65699 0.55902,2.03928 1.99215,3.61954 3.96302,4.36987 1.03786,0.39512 2.18932,0.5004 3.31659,0.30322 z"
         id="path2" /><rect
         style="fill:#ffffff;fill-opacity:1;fill-rule:evenodd;stroke:#ff9b01;stroke-width:0;stroke-dasharray:none;paint-order:stroke markers fill"
         id="rect2"
         width="3.538805"
         height="1.3867109"
         x="158.63237"
         y="137.74451"
         transform="matrix(0.98806246,0.1540538,-0.46962192,0.88286763,0,0)" /><rect
         style="fill:#ffffff;fill-opacity:1;fill-rule:evenodd;stroke:#ff9b01;stroke-width:0;stroke-dasharray:none;paint-order:stroke markers fill"
         id="rect3"
         width="3.1665602"
         height="1.2219434"
         x="120.62843"
         y="170.94601"
         transform="matrix(0.98237657,-0.18691248,-0.14496758,0.98943641,0,0)" /></g><path
       style="fill:#ffffff;fill-opacity:1;fill-rule:evenodd;stroke:#ff9b01;stroke-width:0;stroke-opacity:1;paint-order:stroke markers fill"
       d=""
       id="path40"
       transform="scale(0.26458333)" /></g></svg>
