<?xml version="1.0" encoding="UTF-8" standalone="no"?>
<!-- Created with Inkscape (http://www.inkscape.org/) -->

<svg
   width="108.41262mm"
   height="108.41262mm"
   viewBox="0 0 108.41262 108.41262"
   version="1.1"
   id="svg1"
   xml:space="preserve"
   xmlns:xlink="http://www.w3.org/1999/xlink"
   xmlns="http://www.w3.org/2000/svg"
   xmlns:svg="http://www.w3.org/2000/svg"><defs
     id="defs1"><linearGradient
       id="linearGradient27"><stop
         style="stop-color:#ff0000;stop-opacity:1;"
         offset="0"
         id="stop27" /><stop
         style="stop-color:#ffca00;stop-opacity:0.96862745;"
         offset="1"
         id="stop28" /></linearGradient><linearGradient
       xlink:href="#linearGradient27"
       id="linearGradient28"
       x1="35.001785"
       y1="192.35495"
       x2="143.4144"
       y2="83.942337"
       gradientUnits="userSpaceOnUse" /><filter
       style="color-interpolation-filters:sRGB"
       id="filter90"
       x="-0.059506074"
       y="-0.12477839"
       width="1.1465613"
       height="1.3073246"><feFlood
         result="flood"
         in="SourceGraphic"
         flood-opacity="1.000000"
         flood-color="rgb(0,0,0)"
         id="feFlood89" /><feGaussianBlur
         result="blur"
         in="SourceGraphic"
         stdDeviation="0.900000"
         id="feGaussianBlur89" /><feOffset
         result="offset"
         in="blur"
         dx="1.000000"
         dy="1.000000"
         id="feOffset89" /><feComposite
         result="comp1"
         operator="in"
         in="flood"
         in2="offset"
         id="feComposite89" /><feComposite
         result="comp2"
         operator="over"
         in="SourceGraphic"
         in2="comp1"
         id="feComposite90" /></filter><filter
       style="color-interpolation-filters:sRGB"
       id="filter147"
       x="-0.31473854"
       y="-0.27257434"
       width="1.6432813"
       height="1.5822092"><feFlood
         result="flood"
         in="SourceGraphic"
         flood-opacity="0.815686"
         flood-color="rgb(255,255,255)"
         id="feFlood146" /><feGaussianBlur
         result="blur"
         in="SourceGraphic"
         stdDeviation="9.500000"
         id="feGaussianBlur146" /><feOffset
         result="offset"
         in="blur"
         dx="1.000000"
         dy="3.100000"
         id="feOffset146" /><feComposite
         result="comp1"
         operator="in"
         in="flood"
         in2="offset"
         id="feComposite146" /><feComposite
         result="comp2"
         operator="over"
         in="SourceGraphic"
         in2="comp1"
         id="feComposite147" /></filter><filter
       style="color-interpolation-filters:sRGB"
       id="filter385"
       x="0"
       y="0"
       width="1.0518825"
       height="1.0518825"><feFlood
         result="flood"
         in="SourceGraphic"
         flood-opacity="0.815686"
         flood-color="rgb(105,0,0)"
         id="feFlood384" /><feGaussianBlur
         result="blur"
         in="SourceGraphic"
         stdDeviation="0.000000"
         id="feGaussianBlur384" /><feOffset
         result="offset"
         in="blur"
         dx="1.000000"
         dy="1.000000"
         id="feOffset384" /><feComposite
         result="comp1"
         operator="in"
         in="flood"
         in2="offset"
         id="feComposite384" /><feComposite
         result="comp2"
         operator="over"
         in="SourceGraphic"
         in2="comp1"
         id="feComposite385" /></filter><filter
       style="color-interpolation-filters:sRGB"
       id="filter387"
       x="0"
       y="0"
       width="1.0518825"
       height="1.0518825"><feFlood
         result="flood"
         in="SourceGraphic"
         flood-opacity="0.815686"
         flood-color="rgb(105,0,0)"
         id="feFlood385" /><feGaussianBlur
         result="blur"
         in="SourceGraphic"
         stdDeviation="0.000000"
         id="feGaussianBlur385" /><feOffset
         result="offset"
         in="blur"
         dx="1.000000"
         dy="1.000000"
         id="feOffset385" /><feComposite
         result="comp1"
         operator="in"
         in="flood"
         in2="offset"
         id="feComposite386" /><feComposite
         result="comp2"
         operator="over"
         in="SourceGraphic"
         in2="comp1"
         id="feComposite387" /></filter><filter
       style="color-interpolation-filters:sRGB"
       id="filter389"
       x="0"
       y="0"
       width="1.0518825"
       height="1.0518825"><feFlood
         result="flood"
         in="SourceGraphic"
         flood-opacity="0.815686"
         flood-color="rgb(105,0,0)"
         id="feFlood387" /><feGaussianBlur
         result="blur"
         in="SourceGraphic"
         stdDeviation="0.000000"
         id="feGaussianBlur387" /><feOffset
         result="offset"
         in="blur"
         dx="1.000000"
         dy="1.000000"
         id="feOffset387" /><feComposite
         result="comp1"
         operator="in"
         in="flood"
         in2="offset"
         id="feComposite388" /><feComposite
         result="comp2"
         operator="over"
         in="SourceGraphic"
         in2="comp1"
         id="feComposite389" /></filter><filter
       style="color-interpolation-filters:sRGB"
       id="filter391"
       x="0"
       y="0"
       width="1.0518825"
       height="1.0518825"><feFlood
         result="flood"
         in="SourceGraphic"
         flood-opacity="0.815686"
         flood-color="rgb(105,0,0)"
         id="feFlood389" /><feGaussianBlur
         result="blur"
         in="SourceGraphic"
         stdDeviation="0.000000"
         id="feGaussianBlur389" /><feOffset
         result="offset"
         in="blur"
         dx="1.000000"
         dy="1.000000"
         id="feOffset389" /><feComposite
         result="comp1"
         operator="in"
         in="flood"
         in2="offset"
         id="feComposite390" /><feComposite
         result="comp2"
         operator="over"
         in="SourceGraphic"
         in2="comp1"
         id="feComposite391" /></filter><filter
       style="color-interpolation-filters:sRGB"
       id="filter393"
       x="0"
       y="0"
       width="1.0518825"
       height="1.0518825"><feFlood
         result="flood"
         in="SourceGraphic"
         flood-opacity="0.815686"
         flood-color="rgb(105,0,0)"
         id="feFlood391" /><feGaussianBlur
         result="blur"
         in="SourceGraphic"
         stdDeviation="0.000000"
         id="feGaussianBlur391" /><feOffset
         result="offset"
         in="blur"
         dx="1.000000"
         dy="1.000000"
         id="feOffset391" /><feComposite
         result="comp1"
         operator="in"
         in="flood"
         in2="offset"
         id="feComposite392" /><feComposite
         result="comp2"
         operator="over"
         in="SourceGraphic"
         in2="comp1"
         id="feComposite393" /></filter><filter
       style="color-interpolation-filters:sRGB"
       id="filter395"
       x="0"
       y="0"
       width="1.0112203"
       height="1.010137"><feFlood
         result="flood"
         in="SourceGraphic"
         flood-opacity="0.815686"
         flood-color="rgb(105,0,0)"
         id="feFlood393" /><feGaussianBlur
         result="blur"
         in="SourceGraphic"
         stdDeviation="0.000000"
         id="feGaussianBlur393" /><feOffset
         result="offset"
         in="blur"
         dx="1.000000"
         dy="1.000000"
         id="feOffset393" /><feComposite
         result="comp1"
         operator="in"
         in="flood"
         in2="offset"
         id="feComposite394" /><feComposite
         result="comp2"
         operator="over"
         in="SourceGraphic"
         in2="comp1"
         id="feComposite395" /></filter></defs><g
     id="layer1"
     transform="translate(-35.001785,-83.942337)"><rect
       style="fill:url(#linearGradient28);fill-opacity:1;fill-rule:evenodd;stroke:#ff9b01;stroke-width:0;stroke-opacity:1;paint-order:stroke markers fill"
       id="rect26"
       width="108.41262"
       height="108.41262"
       x="35.001785"
       y="83.942337"
       rx="30"
       ry="30" /><g
       id="g1"
       transform="matrix(0.90701349,0,0,0.90701349,9.3696997,14.003172)"
       style="stroke-width:1.10252"><path
         id="path272"
         style="fill:#000000;stroke-width:1.10252"
         d="m 103.62373,105.0137 c -0.2695,0.002 -0.78905,0.20889 -1.00345,0.40037 -0.0723,0.0646 -0.21317,0.24236 -0.313,0.39478 l -0.18141,0.27703 -0.0181,18.06409 -0.0178,18.06382 h -1.52343 -1.523699 l -2.7e-4,-9.75061 c -5.1e-4,-10.41143 -0.004,-10.51883 -0.34443,-11.94691 -1.39786,-5.8616 -6.2432,-10.12876 -12.21276,-10.75566 -1.515814,-0.1589 -19.83671,-0.16023 -20.462316,-0.003 l -0.0017,-0.004 -19.984159,3.5751 18.852043,2.16035 v 6.07801 l -17.36031,3.10307 17.360304,1.98933 v 6.52314 l -17.360304,3.10307 14.274817,1.63584 -0.01572,4.90514 -0.01864,5.72665 -0.63026,0.1252 c -1.586894,0.3153 -3.197032,1.06826 -4.528475,2.1172 -2.205268,1.73733 -3.741586,4.44584 -4.052716,7.1446 -0.370335,3.21237 0.552005,6.19841 2.657413,8.60144 1.687848,1.92642 4.173186,3.25989 6.695215,3.59241 v -5.2e-4 c 0.823968,0.10864 2.933749,0.0318 3.671522,-0.13399 0.932239,-0.20951 1.790163,-0.51486 2.636639,-0.93819 2.065707,-1.03314 3.823794,-2.77572 4.827084,-4.78447 0.504382,-1.00984 0.910162,-2.2066 1.026636,-3.02875 l 0.04632,-0.32925 h 9.414169 9.413628 v 0.21364 c 0,0.11749 0.0641,0.46829 0.14251,0.77944 0.90405,3.58952 3.50881,6.4605 6.974649,7.68694 1.34306,0.47527 1.94661,0.56832 3.65554,0.56367 1.31935,-0.003 1.6122,-0.0248 2.18192,-0.1577 3.36735,-0.785 6.02631,-2.86016 7.51461,-5.86464 0.44078,-0.88981 0.88236,-2.20383 0.97202,-2.8921 l 0.0429,-0.32925 7.18349,-0.002 c 7.08058,-0.002 7.18734,-0.003 7.49462,-0.14278 0.6474,-0.29351 0.90064,-0.70316 0.90064,-1.45738 0,-0.56862 -0.16856,-0.94445 -0.54982,-1.22508 -0.50606,-0.37245 -0.22593,-0.35988 -7.89979,-0.35988 h -7.11582 l -0.11721,-0.59669 c -0.2611,-1.32878 -0.84786,-2.70966 -1.68167,-3.95762 -0.57002,-0.85316 -2.01938,-2.29531 -2.86466,-2.85108 -1.21392,-0.79816 -2.80463,-1.46394 -3.99997,-1.6734 l -0.5016,-0.0876 -0.0181,-21.17061 -0.0178,-21.17036 -0.15424,-0.31167 c -0.25804,-0.52106 -0.8796,-0.9025 -1.46482,-0.8993 z m 9.34091,0.76079 c -1.96193,0 -3.68713,1.06774 -4.53247,2.80552 -0.53635,1.10262 -0.53017,1.02648 -0.50719,6.44296 l 0.0203,4.7802 0.18834,0.55566 c 0.62086,1.83041 2.22554,3.17608 4.08307,3.42406 0.24153,0.0323 2.71506,0.0532 5.4965,0.0458 5.70515,-0.0145 5.3423,0.0172 6.54658,-0.57378 0.54778,-0.26881 0.75708,-0.42234 1.25039,-0.91741 0.48917,-0.4909 0.64889,-0.70949 0.91635,-1.25279 0.53896,-1.09564 0.53516,-1.04438 0.53516,-6.26129 0,-4.84593 -0.0122,-5.0614 -0.32764,-5.86224 -0.76424,-1.94014 -2.6134,-3.18671 -4.72693,-3.18671 h -0.55701 l -0.003,4.13929 -0.003,4.13902 -1.87799,1.48961 c -1.03267,0.8192 -1.9166,1.51251 -1.96429,1.54074 -0.0554,0.0327 -0.79171,-0.51293 -2.03382,-1.50745 l -1.94697,-1.55885 v -4.12119 -4.12117 z m 2.28928,0.5522 v 3.46322 3.46375 l 1.08417,0.86973 c 0.59637,0.47836 1.10581,0.86085 1.13185,0.85003 0.0261,-0.0108 0.53535,-0.40918 1.13212,-0.88546 l 1.08497,-0.866 -0.0171,-3.42912 -0.0168,-3.42939 -2.19977,-0.0184 z m -47.246903,6.50849 9.196533,0.0248 c 9.138394,0.0246 9.200727,0.0256 9.88912,0.17528 2.276157,0.49507 4.008841,1.42496 5.576421,2.99252 1.56294,1.56292 2.49402,3.26009 3.00157,5.47254 0.15094,0.65777 0.15069,0.6637 0.16943,10.68613 l 0.0189,10.02763 -1.19632,-2.6e-4 -1.19658,-2.6e-4 -2.909674,-2.90889 c -2.148162,-2.14765 -2.999001,-2.95439 -3.251981,-3.08256 l -0.342815,-0.17367 h -9.477299 -9.477299 v -11.60676 z m 44.869453,16.35471 c -0.8458,0 -1.3552,0.0997 -1.97601,0.38599 -1.35181,0.62342 -2.29671,1.66611 -2.77169,3.05885 l -0.18354,0.53889 -0.0203,4.74531 c -0.0228,5.40031 -0.0234,5.39175 0.50346,6.47758 0.5061,1.04314 1.24312,1.77945 2.29621,2.29407 0.34744,0.1698 0.83013,0.35177 1.07325,0.40464 h 5.1e-4 c 0.35322,0.0766 1.47942,0.0968 5.60252,0.10015 5.81748,0.004 5.68307,0.0148 6.74876,-0.50692 1.37728,-0.67421 2.29905,-1.80091 2.67474,-3.26982 0.12915,-0.50539 0.13665,-0.78389 0.13665,-5.22267 0,-4.44771 -0.007,-4.7167 -0.13746,-5.23651 -0.23263,-0.92645 -0.63571,-1.63668 -1.31912,-2.32417 -0.51589,-0.519 -0.69084,-0.64491 -1.31831,-0.94858 -0.81757,-0.39568 -1.26328,-0.49681 -2.19099,-0.49681 h -0.64544 v 4.11159 4.11159 l -1.90888,1.51757 c -1.04987,0.83448 -1.93862,1.52747 -1.97495,1.54022 -0.0363,0.0129 -0.93815,-0.6732 -2.00425,-1.52423 l -1.93845,-1.54714 -2.7e-4,-4.10467 -5.1e-4,-4.10493 z m 2.37718,0.55434 0.004,3.44644 0.004,3.4467 1.05221,0.84416 h 5.1e-4 c 0.57884,0.46404 1.07893,0.84576 1.1116,0.84843 0.0327,0.003 0.55455,-0.39065 1.1601,-0.87373 l 1.10122,-0.87826 v -3.41687 -3.41687 h -2.21709 z m -50.294829,9.49115 h 10.511122 10.511121 l 3.015165,3.00185 c 2.567942,2.55652 3.057622,3.01393 3.300462,3.08282 0.2049,0.0582 1.62307,0.0807 5.03966,0.0807 h 4.754629 v 1.5799 1.57938 l -0.53676,0.0938 c -1.12048,0.19566 -2.647899,0.80928 -3.728799,1.49786 -1.68955,1.07633 -3.11899,2.69978 -3.99411,4.53647 -0.44366,0.93112 -0.88466,2.34132 -0.88466,2.82896 v 0.21524 H 83.533023 74.11886 l -0.04632,-0.32925 c -0.173141,-1.22207 -0.843416,-2.86149 -1.706703,-4.17392 -0.532033,-0.80881 -1.995609,-2.29178 -2.799129,-2.83643 -1.322594,-0.89646 -2.959014,-1.5737 -4.282866,-1.77223 l -0.324987,-0.0488 v -4.66833 z" /><path
         id="path268"
         style="fill:#ffffff;stroke-width:1.10252"
         d="m 103.6238,103.56164 c -0.26951,0.002 -0.78905,0.20888 -1.00346,0.40036 -0.0723,0.0646 -0.21316,0.24236 -0.313,0.39478 l -0.1814,0.27703 -0.0181,18.06409 -0.0178,18.06382 h -1.52344 -1.523699 l -2.6e-4,-9.7506 c -5.1e-4,-10.41144 -0.004,-10.51884 -0.34443,-11.94692 -1.39786,-5.86159 -6.2432,-10.12876 -12.212765,-10.75566 -1.515813,-0.1589 -19.836715,-0.16022 -20.46231,-0.003 l -0.0017,-0.004 -19.984159,3.5751 18.852043,2.16035 v 6.07801 l -17.36031,3.10307 17.36031,1.98934 v 6.52313 l -17.36031,3.10307 14.274823,1.63584 -0.01572,4.90514 -0.01864,5.72666 -0.630261,0.12519 c -1.586888,0.3153 -3.19702,1.06826 -4.528463,2.1172 -2.205268,1.73733 -3.741592,4.44584 -4.052721,7.1446 -0.370335,3.21237 0.55201,6.19842 2.657412,8.60144 1.687849,1.92642 4.173187,3.25989 6.695216,3.59241 v -5.2e-4 c 0.823962,0.10864 2.933749,0.0318 3.671527,-0.13398 0.932233,-0.20952 1.790157,-0.51486 2.636639,-0.9382 2.065707,-1.03313 3.823794,-2.77572 4.82709,-4.78447 0.504371,-1.00983 0.910151,-2.2066 1.026624,-3.02874 l 0.04632,-0.32925 h 9.414164 9.413621 v 0.21363 c 0,0.11749 0.0641,0.46829 0.14252,0.77944 0.90405,3.58952 3.50882,6.4605 6.974649,7.68695 1.34307,0.47527 1.94662,0.56831 3.65555,0.56366 1.31934,-0.003 1.6122,-0.0248 2.18192,-0.1577 3.36734,-0.785 6.0263,-2.86016 7.51461,-5.86464 0.44078,-0.88981 0.88236,-2.20383 0.97202,-2.89209 l 0.0429,-0.32925 7.18349,-0.002 c 7.08058,-0.002 7.18734,-0.003 7.49463,-0.14278 0.6474,-0.29351 0.90063,-0.70316 0.90063,-1.45737 0,-0.56863 -0.16856,-0.94446 -0.54981,-1.22508 -0.50607,-0.37246 -0.22593,-0.35988 -7.89979,-0.35988 h -7.11583 l -0.11721,-0.5967 c -0.2611,-1.32878 -0.84786,-2.70966 -1.68166,-3.95762 -0.57003,-0.85315 -2.01939,-2.29531 -2.86466,-2.85107 -1.21393,-0.79817 -2.80464,-1.46395 -3.99997,-1.6734 l -0.50159,-0.0876 -0.0181,-21.17061 -0.0179,-21.17036 -0.15424,-0.31166 c -0.25804,-0.52107 -0.8796,-0.90251 -1.46482,-0.8993 z m 9.34091,0.76078 c -1.96194,0 -3.68714,1.06774 -4.53248,2.80552 -0.53635,1.10263 -0.53017,1.02648 -0.50719,6.44296 l 0.0203,4.7802 0.18834,0.55567 c 0.62086,1.8304 2.22555,3.17607 4.08308,3.42406 0.24152,0.0323 2.71505,0.0532 5.4965,0.0458 5.70514,-0.0145 5.34229,0.0172 6.54658,-0.57378 0.54778,-0.2688 0.75707,-0.42233 1.25039,-0.91741 0.48917,-0.4909 0.64889,-0.70948 0.91635,-1.25279 0.53896,-1.09564 0.53516,-1.04438 0.53516,-6.26128 0,-4.84594 -0.0122,-5.06141 -0.32765,-5.86225 -0.76423,-1.94014 -2.6134,-3.18671 -4.72692,-3.18671 h -0.55701 l -0.003,4.13929 -0.003,4.13902 -1.87798,1.48961 c -1.03268,0.8192 -1.9166,1.51252 -1.96429,1.54074 -0.0554,0.0327 -0.79171,-0.51293 -2.03382,-1.50745 l -1.94698,-1.55886 v -4.12117 -4.12118 z m 2.28927,0.55221 v 3.46321 3.46375 l 1.08417,0.86974 c 0.59637,0.47835 1.10582,0.86085 1.13185,0.85002 0.0261,-0.0108 0.53535,-0.40918 1.13213,-0.88545 l 1.08496,-0.86601 -0.0171,-3.42912 -0.0168,-3.42939 -2.19978,-0.0184 z m -47.246901,6.50848 9.196533,0.0248 c 9.138394,0.0247 9.200727,0.0256 9.889125,0.17528 2.276152,0.49507 4.008834,1.42496 5.576414,2.99253 1.56294,1.56292 2.49402,3.26009 3.00158,5.47253 0.15094,0.65777 0.15069,0.6637 0.16942,10.68613 l 0.0189,10.02764 -1.19632,-2.7e-4 -1.19658,-2.6e-4 -2.909672,-2.90888 c -2.148163,-2.14765 -2.999001,-2.9544 -3.251981,-3.08256 l -0.342835,-0.17368 H 77.484375 68.00707 v -11.60675 z m 44.869461,16.35472 c -0.84581,0 -1.35521,0.0997 -1.97602,0.38599 -1.35181,0.62342 -2.29671,1.6661 -2.77169,3.05885 l -0.18354,0.53888 -0.0203,4.74531 c -0.0229,5.40032 -0.0234,5.39175 0.50346,6.47758 0.50611,1.04314 1.24312,1.77945 2.29621,2.29408 0.34744,0.1698 0.83013,0.35177 1.07325,0.40463 h 5.1e-4 c 0.35322,0.0766 1.47942,0.0968 5.60252,0.10015 5.81748,0.005 5.68308,0.0148 6.74876,-0.50692 1.37729,-0.67421 2.29905,-1.8009 2.67474,-3.26982 0.12916,-0.50539 0.13665,-0.78389 0.13665,-5.22266 0,-4.44771 -0.007,-4.7167 -0.13745,-5.23652 -0.23264,-0.92645 -0.63572,-1.63668 -1.31912,-2.32417 -0.5159,-0.519 -0.69084,-0.64491 -1.31832,-0.94858 -0.81757,-0.39568 -1.26328,-0.4968 -2.19098,-0.4968 h -0.64545 v 4.11159 4.11159 l -1.90888,1.51756 c -1.04987,0.83448 -1.93862,1.52747 -1.97495,1.54022 -0.0363,0.0129 -0.93815,-0.6732 -2.00425,-1.52423 l -1.93845,-1.54714 -2.6e-4,-4.10466 -5.2e-4,-4.10493 z m 2.37718,0.55434 0.004,3.44643 0.004,3.4467 1.0522,0.84416 h 5.2e-4 c 0.57883,0.46405 1.07893,0.84577 1.1116,0.84843 0.0327,0.003 0.55454,-0.39065 1.16009,-0.87374 l 1.10122,-0.87825 v -3.41686 -3.41687 h -2.21709 z m -50.294837,9.49114 H 75.47001 85.981126 l 3.015165,3.00185 c 2.56794,2.55652 3.05762,3.01393 3.30046,3.08283 0.20491,0.0582 1.62308,0.0807 5.03966,0.0807 h 4.754639 v 1.5799 1.57938 l -0.53676,0.0938 c -1.12049,0.19566 -2.647909,0.80928 -3.728809,1.49786 -1.68955,1.07634 -3.11898,2.69979 -3.99411,4.53647 -0.44366,0.93112 -0.88465,2.34132 -0.88465,2.82897 v 0.21523 h -9.413636 -9.414164 l -0.04632,-0.32925 c -0.173136,-1.22207 -0.843417,-2.86149 -1.706697,-4.17392 -0.53204,-0.80881 -1.995616,-2.29178 -2.799129,-2.83642 -1.322601,-0.89647 -2.959015,-1.57371 -4.282873,-1.77224 l -0.324986,-0.0487 v -4.66833 z" /></g><path
       style="fill:#ffffff;fill-opacity:1;fill-rule:evenodd;stroke:#ff9b01;stroke-width:0;stroke-opacity:1;paint-order:stroke markers fill"
       d=""
       id="path40"
       transform="scale(0.26458333)" /></g></svg>
