<svg xmlns="http://www.w3.org/2000/svg" xmlns:xlink="http://www.w3.org/1999/xlink" width="500" zoomAndPan="magnify" viewBox="0 0 375 374.999991" height="500" preserveAspectRatio="xMidYMid meet" version="1.0"><defs><g/><clipPath id="59a10ac27a"><path d="M 17.179688 32.695312 L 360 32.695312 L 360 337.5 L 17.179688 337.5 Z M 17.179688 32.695312 " clip-rule="nonzero"/></clipPath><clipPath id="664b27481e"><path d="M 207.042969 43.574219 L 356.394531 304.941406 C 360.242188 311.675781 360.214844 319.953125 356.324219 326.660156 C 352.429688 333.371094 345.257812 337.5 337.5 337.5 L 39.375 337.5 C 31.617188 337.5 24.445312 333.371094 20.554688 326.660156 C 16.660156 319.953125 16.632812 311.675781 20.480469 304.941406 L 169.832031 43.574219 C 173.648438 36.898438 180.746094 32.777344 188.4375 32.777344 C 196.128906 32.777344 203.226562 36.898438 207.042969 43.574219 Z M 207.042969 43.574219 " clip-rule="nonzero"/></clipPath></defs><g clip-path="url(#59a10ac27a)"><g clip-path="url(#664b27481e)"><path fill="#d97706" d="M 1.875 11.015625 L 375.546875 11.015625 L 375.546875 337.5 L 1.875 337.5 Z M 1.875 11.015625 " fill-opacity="1" fill-rule="nonzero"/></g></g><g fill="#ffffff" fill-opacity="1"><g transform="translate(158.410439, 295.655517)"><g><path d="M 46.890625 -63.21875 C 46.890625 -63.21875 46.890625 -64.445312 46.890625 -66.90625 L 46.890625 -176.46875 C 46.890625 -178.925781 46.1875 -180.859375 44.78125 -182.265625 C 43.375 -183.671875 41.441406 -184.375 38.984375 -184.375 L 21.078125 -184.375 C 18.617188 -184.375 16.6875 -183.671875 15.28125 -182.265625 C 13.875 -180.859375 13.171875 -178.925781 13.171875 -176.46875 L 13.171875 -66.90625 C 13.171875 -64.445312 13.875 -62.515625 15.28125 -61.109375 C 16.6875 -59.703125 18.617188 -59 21.078125 -59 L 38.984375 -59 C 41.441406 -59 43.375 -59.703125 44.78125 -61.109375 C 46.1875 -62.515625 46.890625 -63.21875 46.890625 -63.21875 Z M 46.890625 -4.21875 C 46.890625 -4.21875 46.890625 -5.445312 46.890625 -7.90625 L 46.890625 -25.546875 C 46.890625 -28.003906 46.1875 -29.9375 44.78125 -31.34375 C 43.375 -32.75 41.441406 -33.453125 38.984375 -33.453125 L 21.078125 -33.453125 C 18.617188 -33.453125 16.6875 -32.75 15.28125 -31.34375 C 13.875 -29.9375 13.171875 -28.003906 13.171875 -25.546875 L 13.171875 -7.90625 C 13.171875 -5.445312 13.875 -3.515625 15.28125 -2.109375 C 16.6875 -0.703125 18.617188 0 21.078125 0 L 38.984375 0 C 41.441406 0 43.375 -0.703125 44.78125 -2.109375 C 46.1875 -3.515625 46.890625 -4.21875 46.890625 -4.21875 Z M 46.890625 -4.21875 "/></g></g></g></svg>